<?xml version="1.0" encoding="UTF-8" standalone="no"?>
<!-- Uploaded to: SVG Repo, www.svgrepo.com, Transformed by: SVG Repo Mixer Tools -->

<svg
   fill="#e1423e"
   width="614.58337"
   height="572.91669"
   viewBox="-6.4 -6.4 59.000004 55.000002"
   style="clip-rule:evenodd;fill-rule:evenodd;stroke-linejoin:round;stroke-miterlimit:2"
   version="1.1"
   xml:space="preserve"
   stroke="#e1423e"
   id="svg1"
   sodipodi:docname="certify-icon-t1.svg"
   xmlns:inkscape="http://www.inkscape.org/namespaces/inkscape"
   xmlns:sodipodi="http://sodipodi.sourceforge.net/DTD/sodipodi-0.dtd"
   xmlns="http://www.w3.org/2000/svg"
   xmlns:svg="http://www.w3.org/2000/svg"><defs
   id="defs1" /><sodipodi:namedview
   id="namedview1"
   pagecolor="#505050"
   bordercolor="#eeeeee"
   borderopacity="1"
   inkscape:showpageshadow="0"
   inkscape:pageopacity="0"
   inkscape:pagecheckerboard="0"
   inkscape:deskcolor="#505050" />





<g
   id="SVGRepo_iconCarrier"
   transform="translate(-8.9000006,-12.9)"> <g
   id="ICON"> <path
   d="M 40.069,9 V 39.562 C 39.344,40.568 38.831,41.735 38.596,43 H 6 C 5.735,43 5.48,42.895 5.293,42.707 5.105,42.52 5,42.265 5,42 V 25.01 c 0,-0.552 -0.448,-1 -1,-1 -0.552,0 -1,0.448 -1,1 V 42 c 0,0.796 0.316,1.559 0.879,2.121 C 4.441,44.684 5.204,45 6,45 h 32.462 c 0.082,1.664 0.639,3.204 1.538,4.486 0,0.005 0,0.009 0,0.014 V 60 c 0,0.369 0.203,0.708 0.528,0.882 0.325,0.174 0.72,0.155 1.027,-0.05 L 47,57.202 c 0,0 5.445,3.63 5.445,3.63 0.307,0.205 0.702,0.224 1.027,0.05 C 53.797,60.708 54,60.369 54,60 V 49.555 C 54.928,48.259 55.503,46.694 55.587,45 H 58 c 1.657,0 3,-1.343 3,-3 V 10 C 61,8.343 59.657,7 58,7 51.879,7 33.814,7 33.814,7 c -0.552,0 -1,0.448 -1,1 0,0.552 0.448,1 1,1 z M 42,51.518 v 6.613 l 4.445,-2.963 c 0.336,-0.224 0.774,-0.224 1.11,0 0,0 4.445,2.963 4.445,2.963 v -6.578 c -1.403,1.002 -3.121,1.593 -4.976,1.593 -1.876,0 -3.612,-0.604 -5.024,-1.628 z M 47.024,38 c 3.628,0 6.573,2.945 6.573,6.573 0,3.627 -2.945,6.573 -6.573,6.573 -3.627,0 -6.572,-2.946 -6.572,-6.573 0,-3.628 2.945,-6.573 6.572,-6.573 z m 0.874,1.398 c -0.176,-0.317 -0.511,-0.514 -0.874,-0.514 -0.363,0 -0.697,0.197 -0.874,0.514 l -1.216,2.187 c 0,0 -2.456,0.481 -2.456,0.481 -0.357,0.07 -0.647,0.328 -0.759,0.673 -0.113,0.345 -0.029,0.724 0.218,0.99 l 1.705,1.833 c 0,0 -0.302,2.485 -0.302,2.485 -0.043,0.36 0.112,0.716 0.405,0.929 0.294,0.213 0.68,0.251 1.009,0.098 l 2.27,-1.055 c 0,0 2.27,1.055 2.27,1.055 0.33,0.153 0.716,0.115 1.01,-0.098 0.293,-0.213 0.448,-0.569 0.404,-0.929 l -0.301,-2.485 c 0,0 1.704,-1.833 1.704,-1.833 0.248,-0.266 0.331,-0.645 0.219,-0.99 -0.112,-0.345 -0.402,-0.603 -0.759,-0.673 l -2.456,-0.481 z m -0.874,2.543 0.569,1.023 c 0.143,0.257 0.392,0.438 0.682,0.495 l 1.147,0.225 c 0,0 -0.796,0.856 -0.796,0.856 -0.201,0.216 -0.296,0.509 -0.261,0.802 l 0.141,1.16 c 0,0 -1.06,-0.492 -1.06,-0.492 -0.267,-0.124 -0.576,-0.124 -0.843,0 l -1.061,0.492 c 0,0 0.141,-1.16 0.141,-1.16 0.036,-0.293 -0.059,-0.586 -0.26,-0.802 l -0.796,-0.856 c 0,0 1.147,-0.225 1.147,-0.225 0.289,-0.057 0.539,-0.238 0.682,-0.495 z M 53.98,9 v 30.562 c 0.725,1.005 1.238,2.173 1.473,3.438 H 58 c 0.552,0 1,-0.448 1,-1 0,0 0,-32 0,-32 C 59,9.448 58.552,9 58,9 Z M 17.759,25.685 C 15.83,26.322 14.017,27.408 12.484,28.942 9.709,31.717 8.4,35.406 8.557,39.043 8.58,39.578 9.02,40 9.556,40 H 34.444 C 34.98,40 35.42,39.578 35.443,39.043 35.6,35.406 34.291,31.717 31.516,28.942 29.983,27.408 28.17,26.322 26.241,25.685 28.209,24.332 29.5,22.066 29.5,19.5 29.5,15.361 26.139,12 22,12 c -4.139,0 -7.5,3.361 -7.5,7.5 0,2.566 1.291,4.832 3.259,6.185 z m 2.795,1.408 c -2.435,0.308 -4.789,1.396 -6.656,3.263 -2.12,2.119 -3.234,4.865 -3.345,7.644 h 9.374 l -1.892,-2.377 c -0.214,-0.27 -0.275,-0.631 -0.16,-0.956 z m 2.892,0 2.679,7.574 c 0.115,0.325 0.054,0.686 -0.16,0.956 L 24.073,38 h 9.374 C 33.336,35.221 32.222,32.475 30.102,30.356 28.235,28.489 25.881,27.401 23.446,27.093 Z M 51.98,37.578 V 9 c 0,0 -9.911,0 -9.911,0 V 37.578 C 43.468,36.585 45.179,36 47.024,36 c 1.846,0 3.556,0.585 4.956,1.578 z M 22,37.394 19.946,34.811 c 0,0 2.054,-5.809 2.054,-5.809 0,0 2.054,5.809 2.054,5.809 z M 22,14 c 3.036,0 5.5,2.464 5.5,5.5 0,3.036 -2.464,5.5 -5.5,5.5 -3.036,0 -5.5,-2.464 -5.5,-5.5 0,-3.036 2.464,-5.5 5.5,-5.5 z M 30.07,7 H 6 C 5.204,7 4.441,7.316 3.879,7.879 3.316,8.441 3,9.204 3,10 c 0,3.666 0,11.089 0,11.089 0,0.552 0.448,1 1,1 0.552,0 1,-0.448 1,-1 C 5,21.089 5,13.666 5,10 5,9.735 5.105,9.48 5.293,9.293 5.48,9.105 5.735,9 6,9 h 24.07 c 0.552,0 1,-0.448 1,-1 0,-0.552 -0.448,-1 -1,-1 z"
   id="path1" /> </g> </g>

</svg>
